<svg xmlns="http://www.w3.org/2000/svg" viewBox="0 0 101 31"><path fill="#DA262D" fill-rule="evenodd" d="M.824 9.766h13.93v3.43H4.745v5.173h9.468v3.308H4.744v8.633H.824V9.767zm24.484 9.957c-.513-.18-.935-.3-1.478-.3-2.2 0-3.98 2.195-3.98 5.353v5.535h-3.74V16.324h3.71v2.287h.06c.844-1.655 2.05-2.617 3.86-2.617.663 0 1.116.15 1.568.33v3.4zm72.88 0c-.514-.18-.936-.3-1.48-.3-2.2 0-3.98 2.195-3.98 5.353v5.535h-3.74V16.324h3.71v2.287h.06c.845-1.655 2.05-2.617 3.86-2.617.664 0 1.116.15 1.57.33v3.4zm-57.23 3.61c0 3.67-2.925 7.31-7.75 7.31-4.704 0-7.66-3.43-7.66-7.28 0-4.392 3.68-7.37 7.51-7.37 5.186 0 7.9 3.76 7.9 7.34zM55.28 30.31h-3.74v-8.12c0-1.445-.42-2.588-2.05-2.588-2.26 0-3.588 2.347-3.588 5.024v5.685h-3.74V16.324H45.9l.002 2.196c.603-.903 1.72-2.527 4.433-2.527 3.377 0 4.945 2.316 4.945 5.203v9.115zm12.542 0V16.324h3.74V30.31h-3.74zm19.33-6.496H76.777c.21.69.392 1.203.874 1.805a4.513 4.513 0 0 0 3.408 1.593c2.05 0 3.92-1.053 5.548-2.316v3.82c-1.236.662-3.558 1.925-6.15 1.925-4.464 0-7.57-3.4-7.57-7.28 0-3.91 3.136-7.37 7.297-7.37 4.222 0 6.966 3.01 6.966 7.25v.572zM61.9 12.142v4.212h3.92v2.797h-3.8v6.108c0 1.564.845 1.955 1.81 1.955.754 0 1.417-.24 1.99-.48v3.307c-1.116.302-2.262.482-3.407.482-2.533 0-4.132-1.294-4.132-4v-7.37h-2.32v-2.798h2.324v-4.227H61.9v.015zm37.86 4.166l.3.416.303-.416h.203v.96h-.21l.01-.632-.288.403h-.045l-.28-.413.008.64h-.21v-.96h.21zm-1.188.198v-.195h.844v.196h-.318v.76h-.208v-.76h-.318zM65.324 7.863c0 .983-.798 1.78-1.783 1.78a1.78 1.78 0 0 1-1.782-1.78c0-.98.797-1.778 1.783-1.778.986 0 1.784.797 1.784 1.778zM58.8 4.448a1.5 1.5 0 0 1-1.502 1.497 1.497 1.497 0 1 1 0-2.995A1.5 1.5 0 0 1 58.8 4.448zm-6.24-2.154a1.407 1.407 0 0 1-2.814-.001c0-.776.63-1.404 1.407-1.404s1.407.628 1.407 1.404zm-6.664-1.078c0 .672-.545 1.217-1.22 1.217A1.217 1.217 0 1 1 44.678 0c.673 0 1.218.544 1.218 1.216zm-6.757 0a1.032 1.032 0 0 1-2.063 0 1.03 1.03 0 1 1 2.062 0zm-6.548.843a.913.913 0 0 1-1.827 0c0-.504.408-.912.913-.912.505 0 .914.408.914.91zM26.164 4.4a.632.632 0 0 1-1.263 0c0-.35.282-.63.63-.63.35 0 .634.28.634.63zm-5.306 3.538a.394.394 0 1 1-.395-.395c.22 0 .395.177.395.395zm-3.178 3.93a.297.297 0 1 1-.594 0 .297.297 0 0 1 .594 0zm53.952.758c0 1.09-.9 1.96-1.992 1.96a1.983 1.983 0 0 1-1.992-1.987c0-1.17.982-1.988 1.91-1.988.682 0 2.074.572 2.074 2.014zm11.478 8.63c-.24-1.593-1.628-2.466-2.834-2.466-.302 0-2.383.09-3.167 2.467h6zm-53.55 2.046c0 2.497 1.87 4.03 3.77 4.03 2.17 0 3.617-2.044 3.617-3.97 0-2.045-1.508-4.06-3.588-4.06-2.172 0-3.8 1.714-3.8 4z"/></svg>